<?xml version="1.0" standalone="no"?>
<!DOCTYPE svg PUBLIC "-//W3C//DTD SVG 20010904//EN"
 "http://www.w3.org/TR/2001/REC-SVG-20010904/DTD/svg10.dtd">
<svg version="1.0" xmlns="http://www.w3.org/2000/svg"
 width="440.000000pt" height="512.000000pt" viewBox="0 0 440.000000 512.000000"
 preserveAspectRatio="xMidYMid meet">

<g transform="translate(0.000000,512.000000) scale(0.100000,-0.100000)"
fill="#000000" stroke="none">
<path d="M1970 5109 c-284 -37 -586 -146 -815 -297 -244 -160 -454 -377 -605
-627 -232 -385 -325 -888 -237 -1285 80 -355 246 -751 514 -1223 466 -822
1166 -1677 1373 -1677 239 0 1068 1065 1527 1960 249 487 378 882 390 1201 25
650 -310 1283 -872 1651 -234 154 -532 261 -825 298 -97 12 -355 11 -450 -1z
m493 -660 c490 -99 883 -493 988 -990 31 -147 31 -371 0 -518 -106 -499 -493
-886 -992 -992 -147 -31 -371 -31 -518 0 -499 106 -886 493 -992 992 -31 147
-31 371 0 518 114 539 554 942 1103 1011 104 13 293 4 411 -21z"/>
<path d="M2026 4168 c-2 -7 -9 -32 -15 -56 -7 -24 -28 -60 -47 -81 -50 -56
-115 -80 -250 -94 l-114 -11 0 -148 0 -148 190 0 190 0 0 -475 0 -475 -190 0
-190 0 0 -160 0 -160 600 0 600 0 0 160 0 160 -185 0 -185 0 0 750 0 750 -200
0 c-152 0 -201 -3 -204 -12z"/>
</g>
</svg>
